<?xml version="1.0" standalone="no"?>
<!DOCTYPE svg PUBLIC "-//W3C//DTD SVG 20010904//EN"
 "http://www.w3.org/TR/2001/REC-SVG-20010904/DTD/svg10.dtd">
<svg version="1.0" xmlns="http://www.w3.org/2000/svg"
 width="800.000000pt" height="321.000000pt" viewBox="0 0 800.000000 321.000000"
 preserveAspectRatio="xMidYMid meet">

<g transform="translate(0.000000,321.000000) scale(0.100000,-0.100000)"
fill="#000000" stroke="none">
<path d="M1520 2694 c-14 -2 -52 -9 -85 -15 -295 -53 -556 -314 -619 -621 -88
-428 192 -855 620 -943 515 -106 990 302 961 825 -13 218 -89 384 -249 536
-105 101 -224 167 -360 199 -66 15 -225 27 -268 19z m246 -80 c253 -52 474
-266 543 -526 23 -87 36 -214 24 -245 -8 -21 -11 -19 -88 39 l-79 60 -90 -98
c-50 -55 -119 -128 -153 -164 l-63 -65 0 188 c0 160 2 187 15 187 12 0 15 18
15 100 0 73 -3 100 -12 100 -32 0 -515 -72 -534 -80 -19 -8 -22 -17 -23 -99
-2 -74 1 -92 13 -97 14 -5 16 -33 16 -185 0 -98 -3 -179 -8 -179 -4 0 -70 52
-146 116 l-139 116 -72 -72 c-40 -40 -75 -68 -78 -63 -22 36 -41 150 -41 253
0 267 126 489 359 631 159 96 342 124 541 83z m-40 -545 c47 -12 62 -25 47
-40 -5 -5 -27 -2 -53 7 -78 28 -180 8 -272 -53 -21 -13 -31 -14 -39 -6 -8 8
-1 18 28 37 89 59 194 79 289 55z m-1 -63 l35 -15 0 -80 c0 -94 17 -82 -160
-106 -63 -9 -125 -18 -137 -20 -22 -5 -23 -3 -23 79 l0 84 34 21 c80 50 183
65 251 37z m506 -206 c36 -36 32 -71 -12 -112 -31 -30 -66 -35 -102 -17 -29
16 -37 28 -37 62 0 38 15 64 48 81 41 23 71 19 103 -14z m-1110 -151 c17 -17
20 -29 15 -58 -11 -74 -98 -107 -145 -57 -68 72 61 184 130 115z m1163 -24
c-4 -8 -10 -15 -14 -15 -5 0 -85 -11 -180 -25 -201 -29 -210 -30 -210 -10 0 8
8 15 18 15 9 0 87 11 172 24 192 30 221 31 214 11z m-44 -83 c0 -4 -7 -17 -15
-29 -12 -17 -35 -24 -127 -37 -62 -9 -123 -19 -135 -22 -22 -4 -23 -9 -23
-109 0 -87 -3 -105 -15 -105 -12 0 -15 18 -15 105 l0 105 -27 -6 c-32 -5 -570
-84 -578 -84 -3 0 -5 -30 -5 -66 0 -48 -3 -65 -12 -62 -8 3 -14 27 -16 62 l-3
57 -77 -6 c-70 -7 -79 -5 -96 14 -11 12 -15 21 -10 22 5 0 261 38 569 83 645
96 585 88 585 78z m-920 -55 c0 -9 -42 -20 -142 -34 -121 -18 -145 -19 -157
-8 -16 15 -17 15 144 39 121 18 155 19 155 3z"/>
<path d="M1563 2558 c-40 -6 -73 -13 -73 -17 0 -4 6 -15 13 -24 11 -16 20 -16
95 -6 80 12 83 12 107 -11 l24 -23 6 26 c5 17 1 32 -11 46 -20 23 -42 25 -161
9z"/>
<path d="M1566 2479 c-27 -4 -52 -12 -55 -16 -3 -5 -62 -83 -130 -172 -122
-162 -123 -164 -90 -158 19 3 162 25 319 47 157 23 294 45 305 49 18 8 4 24
-110 135 -141 137 -133 133 -239 115z"/>
<path d="M1930 2194 c0 -4 8 -21 19 -38 10 -17 37 -64 61 -104 23 -41 44 -71
46 -69 9 9 -100 217 -113 217 -7 0 -13 -3 -13 -6z"/>
<path d="M1919 2068 c-1 -40 -1 -79 0 -85 1 -7 -5 -13 -14 -13 -8 0 -15 -3
-15 -7 0 -5 -3 -71 -6 -148 l-6 -140 37 35 c20 19 55 57 78 84 35 42 41 56 43
100 2 45 -5 62 -53 149 -30 53 -57 97 -59 97 -2 0 -5 -33 -5 -72z"/>
<path d="M1273 2102 c-8 -5 -6 -15 7 -32 l20 -25 0 27 c0 30 -10 40 -27 30z"/>
<path d="M2125 1775 c-29 -28 -31 -47 -9 -69 34 -34 114 -1 114 46 0 48 -66
63 -105 23z"/>
<path d="M1045 1640 c-31 -12 -47 -36 -43 -67 3 -24 8 -28 36 -31 45 -4 74 22
70 61 -3 33 -31 49 -63 37z"/>
<path d="M2890 1550 c0 -573 3 -870 10 -870 7 0 10 297 10 870 0 573 -3 870
-10 870 -7 0 -10 -297 -10 -870z"/>
<path d="M3393 2359 c-37 -19 -56 -73 -51 -147 4 -58 8 -68 36 -93 57 -51 147
-30 167 39 6 19 3 22 -25 22 -17 0 -33 -6 -36 -14 -8 -21 -32 -28 -55 -16 -16
9 -19 22 -19 80 0 59 3 71 20 80 21 11 60 -2 60 -20 0 -6 14 -10 30 -10 37 0
39 18 7 55 -26 31 -96 43 -134 24z"/>
<path d="M3650 2230 l0 -140 85 0 85 0 0 30 c0 30 -1 30 -55 30 -54 0 -55 0
-55 30 0 29 1 30 50 30 47 0 50 2 50 25 0 23 -3 25 -50 25 -47 0 -50 2 -50 25
0 24 3 25 55 25 54 0 55 0 55 30 l0 30 -85 0 -85 0 0 -140z"/>
<path d="M3920 2230 l0 -140 30 0 30 0 0 78 0 77 51 -77 c40 -61 57 -78 75
-78 l24 0 0 141 0 140 -27 -3 c-27 -3 -28 -5 -33 -75 l-5 -72 -49 74 c-38 59
-54 75 -72 75 l-24 0 0 -140z"/>
<path d="M4226 2355 c-10 -28 5 -45 40 -45 l34 0 0 -110 0 -110 30 0 30 0 0
110 0 110 35 0 c32 0 35 2 35 30 l0 30 -99 0 c-79 0 -100 -3 -105 -15z"/>
<path d="M4524 2357 c-2 -7 -3 -69 -2 -138 l3 -124 82 -3 c74 -3 82 -1 88 18
10 31 -2 40 -56 40 -48 0 -49 1 -49 30 0 29 2 30 45 30 41 0 45 2 45 25 0 23
-4 25 -45 25 -41 0 -45 2 -45 25 0 23 3 25 49 25 41 0 51 4 56 20 3 11 3 24 0
30 -10 16 -165 13 -171 -3z"/>
<path d="M4790 2231 l0 -142 33 3 c31 3 32 4 35 56 4 70 25 69 57 -3 23 -51
27 -55 59 -55 l35 0 -26 59 -25 59 21 21 c28 28 27 73 -2 107 -21 24 -32 28
-105 32 l-82 5 0 -142z m138 52 c-2 -23 -9 -29 -34 -31 -28 -3 -32 0 -36 27
-4 30 -3 31 34 31 37 0 39 -2 36 -27z"/>
<path d="M5270 2230 c0 -116 3 -140 15 -140 10 0 15 16 17 63 l3 62 58 3 c31
2 57 7 57 12 0 5 -26 10 -57 12 l-58 3 0 45 0 45 68 3 c48 2 67 7 64 15 -2 8
-33 13 -85 15 l-82 3 0 -141z"/>
<path d="M5563 2346 c-27 -23 -28 -28 -28 -116 0 -88 1 -93 28 -116 53 -45
136 -23 157 42 15 43 8 141 -11 172 -29 46 -102 56 -146 18z m112 -26 c26 -29
27 -151 1 -179 -19 -21 -61 -27 -82 -13 -22 14 -34 51 -34 102 0 51 12 88 34
102 21 14 63 8 81 -12z"/>
<path d="M5840 2231 c0 -116 3 -141 15 -141 10 0 15 15 17 58 3 56 3 57 35 60
30 3 34 0 63 -57 17 -34 37 -61 45 -61 20 0 19 1 -11 63 l-26 54 26 26 c32 32
33 68 2 104 -21 24 -32 28 -95 31 l-71 4 0 -141z m123 100 c33 -13 41 -39 22
-68 -14 -21 -23 -24 -63 -21 -45 3 -47 4 -50 36 -2 19 -1 40 2 48 6 16 53 18
89 5z"/>
<path d="M4035 1941 c-59 -18 -75 -48 -75 -141 0 -66 2 -74 29 -101 24 -24 38
-29 76 -29 38 0 52 5 76 29 27 27 29 35 29 105 0 69 -2 78 -27 105 -29 30 -73
43 -108 32z m65 -77 c6 -14 10 -40 10 -59 0 -54 -16 -85 -44 -85 -32 0 -46 26
-46 85 0 59 14 85 46 85 17 0 27 -8 34 -26z"/>
<path d="M3350 1805 l0 -135 74 0 c59 0 78 4 100 21 31 24 36 78 10 104 -13
12 -14 19 -5 28 6 6 11 28 11 48 0 54 -26 69 -117 69 l-73 0 0 -135z m119 76
c23 -15 5 -41 -29 -41 -25 0 -30 4 -30 25 0 19 5 25 23 25 12 0 28 -4 36 -9z
m17 -116 c9 -23 -15 -45 -47 -45 -26 0 -29 4 -29 30 0 28 3 30 35 30 23 0 38
-6 41 -15z"/>
<path d="M3650 1805 l0 -135 35 0 35 0 0 50 c0 41 3 50 18 50 12 0 25 -16 39
-50 20 -47 24 -50 57 -50 l35 0 -25 55 c-23 50 -24 56 -10 71 38 38 30 109
-14 131 -14 7 -58 13 -97 13 l-73 0 0 -135z m138 53 c3 -26 1 -28 -32 -28 -33
0 -36 2 -36 31 0 28 2 30 33 27 27 -2 33 -8 35 -30z"/>
<path d="M4296 1809 c-25 -72 -46 -133 -46 -135 0 -2 15 -4 34 -4 28 0 35 4
40 25 6 22 12 25 50 25 38 0 45 -3 50 -25 5 -21 12 -25 42 -25 20 0 34 4 32 8
-1 4 -23 65 -47 135 l-44 127 -32 0 -33 0 -46 -131z m98 -16 c6 -20 4 -23 -18
-23 -30 0 -29 -2 -15 40 12 34 19 30 33 -17z"/>
<path d="M4584 1927 c-2 -7 -3 -67 -2 -133 l3 -119 73 -3 c69 -3 74 -1 102 27
28 27 30 35 30 100 0 117 -23 141 -136 141 -44 0 -66 -4 -70 -13z m136 -56 c5
-11 10 -42 10 -70 0 -56 -17 -81 -56 -81 -24 0 -24 2 -24 85 l0 85 30 0 c19 0
33 -7 40 -19z"/>
<path d="M4900 1805 l0 -135 85 0 c84 0 85 0 85 25 0 24 -3 25 -55 25 -54 0
-55 0 -55 29 0 28 2 30 48 33 43 3 47 5 47 28 0 23 -4 25 -47 28 -43 3 -48 5
-48 28 0 23 3 24 55 24 52 0 55 1 55 25 0 25 -1 25 -85 25 l-85 0 0 -135z"/>
<path d="M5170 1805 l0 -135 30 0 29 0 3 73 3 72 48 -72 c38 -57 54 -73 73
-73 l24 0 0 135 0 135 -24 0 c-30 0 -36 -15 -30 -84 2 -31 1 -56 -3 -56 -5 1
-29 32 -56 70 -37 55 -53 70 -72 70 l-25 0 0 -135z"/>
<path d="M5500 1805 l0 -135 30 0 30 0 0 135 0 135 -30 0 -30 0 0 -135z"/>
<path d="M5680 1805 l0 -135 25 0 c14 0 26 6 26 13 1 6 2 35 3 64 0 28 3 54 6
57 3 2 26 -25 50 -62 35 -52 51 -68 73 -70 l27 -3 0 135 0 136 -30 0 -29 0 -3
-72 -3 -73 -49 73 c-38 55 -54 72 -72 72 l-24 0 0 -135z"/>
<path d="M6026 1909 c-23 -27 -26 -39 -26 -106 0 -69 2 -77 29 -104 24 -23 38
-29 74 -29 28 0 53 7 66 18 22 17 46 95 36 113 -4 5 -26 9 -51 9 -40 0 -44 -2
-44 -25 0 -16 6 -25 16 -25 9 0 14 -7 12 -17 -5 -25 -49 -29 -65 -7 -16 21
-17 107 -3 135 13 23 58 26 66 4 8 -19 64 -20 64 -1 0 7 -9 25 -21 40 -17 22
-28 26 -74 26 -47 0 -56 -3 -79 -31z"/>
<path d="M3352 1383 l3 -138 25 0 c23 0 25 4 28 48 l3 47 45 0 c58 0 94 32 94
85 0 71 -36 95 -142 95 l-59 0 3 -137z m133 57 c9 -28 -11 -50 -46 -50 -26 0
-29 3 -29 35 0 33 2 35 34 35 26 0 36 -5 41 -20z"/>
<path d="M3667 1386 c-26 -74 -47 -137 -47 -140 0 -3 14 -6 30 -6 23 0 33 6
42 25 9 21 18 25 54 25 34 0 44 -4 49 -20 7 -21 7 -22 45 -24 14 0 25 4 25 9
0 6 -20 67 -45 138 -43 125 -44 127 -75 127 -30 0 -31 -1 -78 -134z m103 -33
c0 -15 -36 -18 -44 -4 -3 5 -1 24 6 42 l12 34 12 -30 c7 -17 13 -36 14 -42z"/>
<path d="M3950 1385 c0 -82 4 -135 10 -136 6 -1 17 -1 25 -1 8 0 20 0 25 1 6
0 10 24 10 51 0 66 22 67 52 3 13 -27 23 -49 23 -50 0 -1 15 -4 33 -8 39 -7
41 6 11 68 l-22 44 22 22 c23 23 27 61 10 93 -16 29 -70 48 -139 48 l-60 0 0
-135z m138 48 c-3 -25 -7 -28 -37 -28 -30 0 -34 3 -35 28 -2 25 1 27 37 27 36
0 38 -2 35 -27z"/>
<path d="M4242 1493 c3 -24 7 -28 36 -27 l32 0 0 -107 c0 -112 4 -121 46 -115
17 3 20 15 24 112 5 108 5 109 30 110 40 2 40 3 40 29 l0 25 -106 0 -105 0 3
-27z"/>
<path d="M4550 1380 c0 -140 0 -140 23 -136 12 3 25 5 30 5 4 1 7 62 7 136 l0
135 -30 0 -30 0 0 -140z"/>
<path d="M4773 1510 c-33 -14 -53 -61 -53 -130 0 -73 18 -113 60 -130 61 -25
140 9 140 61 0 14 -7 19 -30 19 -19 0 -30 -5 -30 -14 0 -23 -40 -26 -61 -5
-36 36 -17 159 25 159 7 0 23 -9 36 -20 27 -23 60 -26 60 -6 0 58 -79 93 -147
66z"/>
<path d="M5032 1383 l3 -138 24 0 c33 0 42 36 39 145 -3 123 -5 130 -39 130
l-30 0 3 -137z"/>
<path d="M5210 1381 l0 -140 30 1 c29 1 30 3 30 50 l0 48 44 0 c58 0 96 34 96
85 0 71 -36 95 -141 95 l-59 0 0 -139z m135 57 c9 -26 -12 -48 -46 -48 -26 0
-29 3 -29 33 0 42 3 45 40 39 18 -2 32 -12 35 -24z"/>
<path d="M5528 1388 c-27 -76 -43 -137 -38 -142 14 -14 58 2 65 24 5 16 15 20
50 20 39 0 45 -3 51 -24 4 -16 12 -23 27 -21 12 1 27 3 34 4 8 1 -4 47 -35
136 -46 133 -47 135 -77 135 -30 0 -31 -2 -77 -132z m97 -36 c-9 -10 -45 -12
-45 -3 0 4 5 23 12 42 l12 34 13 -34 c8 -18 11 -36 8 -39z"/>
<path d="M5792 1493 c3 -24 7 -28 36 -28 l32 0 0 -101 c0 -109 9 -132 50 -119
18 6 20 14 20 111 0 111 -2 107 53 107 12 0 17 8 17 28 l0 29 -106 0 -105 0 3
-27z"/>
<path d="M6102 1383 l3 -138 28 -3 27 -3 0 140 0 141 -30 0 -31 0 3 -137z"/>
<path d="M6321 1506 c-37 -20 -50 -55 -51 -129 0 -65 2 -71 34 -103 38 -38 77
-44 126 -19 42 22 50 43 50 130 0 71 -2 79 -29 106 -33 32 -87 39 -130 15z
m83 -52 c11 -10 16 -34 16 -74 0 -55 -15 -90 -39 -90 -42 0 -68 107 -37 155
19 29 38 32 60 9z"/>
<path d="M6592 1383 l3 -138 25 0 c24 0 25 4 30 70 l5 70 48 -71 c37 -54 53
-70 70 -69 21 2 22 5 25 139 l3 137 -28 -3 c-27 -3 -28 -5 -33 -75 l-5 -72
-49 74 c-38 59 -54 75 -72 75 l-25 0 3 -137z"/>
<path d="M4054 1091 c-12 -5 -31 -22 -44 -38 -19 -25 -21 -37 -18 -106 3 -72
6 -81 31 -103 40 -34 108 -34 142 1 14 13 25 31 25 40 0 21 -49 20 -65 -1 -17
-23 -61 -11 -69 18 -9 36 -7 97 4 119 13 23 58 26 66 4 9 -23 64 -20 64 3 0
44 -87 83 -136 63z"/>
<path d="M4364 1089 c-51 -15 -68 -42 -72 -118 -6 -105 25 -151 102 -151 80 0
111 41 110 145 0 71 -21 108 -66 124 -35 12 -32 12 -74 0z m64 -61 c16 -16 16
-130 0 -146 -16 -16 -43 -15 -57 2 -17 20 -24 97 -12 129 11 29 47 37 69 15z"/>
<path d="M6454 1084 c-41 -20 -56 -56 -55 -132 1 -99 27 -131 103 -132 40 0
50 4 72 31 18 21 26 42 26 70 l0 39 -51 0 c-43 0 -50 -3 -45 -16 3 -9 6 -20 6
-25 0 -5 7 -9 16 -9 19 0 14 -20 -9 -34 -12 -8 -22 -8 -34 0 -22 14 -31 127
-12 150 15 19 58 18 65 -1 7 -18 64 -20 64 -2 0 25 -32 56 -68 67 -46 12 -41
13 -78 -6z"/>
<path d="M3360 955 c0 -113 2 -135 15 -135 13 0 15 22 15 135 0 113 -2 135
-15 135 -13 0 -15 -22 -15 -135z"/>
<path d="M3530 955 c0 -112 3 -135 15 -135 11 0 15 20 17 103 l3 102 59 -102
c41 -71 66 -103 78 -103 16 0 18 11 18 135 0 128 -1 135 -20 135 -19 0 -20 -7
-20 -102 l0 -103 -58 102 c-81 146 -92 143 -92 -32z"/>
<path d="M4610 955 l0 -135 30 0 30 0 0 73 0 72 28 -50 c38 -69 54 -69 91 2
l30 58 1 -77 0 -78 30 0 30 0 0 135 0 135 -33 0 c-30 0 -35 -5 -66 -67 -37
-76 -38 -76 -87 20 -21 40 -29 47 -54 47 l-30 0 0 -135z"/>
<path d="M4990 955 l0 -135 30 0 c29 0 30 2 30 45 0 43 1 45 30 45 17 0 46 6
64 14 61 26 70 111 14 150 -15 11 -45 16 -95 16 l-73 0 0 -135z m133 64 c17
-28 1 -49 -38 -49 -33 0 -35 2 -35 36 0 34 1 35 31 32 18 -2 37 -10 42 -19z"/>
<path d="M5290 984 c0 -103 1 -106 29 -135 25 -24 37 -29 78 -29 85 1 103 31
103 169 l0 101 -30 0 -30 0 0 -91 c0 -102 -10 -129 -45 -129 -35 0 -45 27 -45
129 l0 91 -30 0 -30 0 0 -106z"/>
<path d="M5590 1065 c0 -22 4 -25 35 -25 l35 0 0 -110 0 -110 35 0 35 0 0 110
0 110 35 0 c31 0 35 3 35 25 l0 25 -105 0 -105 0 0 -25z"/>
<path d="M5900 955 l0 -135 30 0 30 0 0 135 0 135 -30 0 -30 0 0 -135z"/>
<path d="M6070 955 l0 -135 30 0 30 0 0 70 c0 39 3 70 8 70 4 0 27 -32 52 -70
38 -58 49 -70 73 -70 l27 0 0 135 0 135 -30 0 -29 0 -3 -72 -3 -73 -49 73
c-42 61 -53 72 -77 72 l-29 0 0 -135z"/>
<path d="M857 953 c-4 -7 -2 -242 2 -265 0 -5 8 -8 16 -8 12 0 15 17 16 93 0
101 9 97 30 -15 18 -96 34 -95 56 5 l18 82 5 -80 c4 -66 8 -80 23 -83 15 -3
17 9 17 137 l0 141 -29 0 c-27 0 -29 -2 -41 -75 -7 -41 -16 -75 -20 -75 -4 0
-14 33 -21 73 -13 66 -16 72 -41 75 -14 2 -28 0 -31 -5z"/>
<path d="M1094 946 c-16 -12 -20 -29 -22 -113 -3 -88 -2 -101 18 -126 26 -33
71 -36 100 -7 17 17 20 33 20 118 0 115 -12 142 -64 142 -18 0 -41 -6 -52 -14z
m74 -124 c2 -76 0 -93 -13 -98 -33 -13 -45 15 -45 101 0 45 3 85 7 89 4 4 16
6 28 4 18 -3 20 -11 23 -96z"/>
<path d="M1242 823 c3 -122 5 -138 21 -141 15 -3 17 5 17 58 0 75 16 77 40 5
15 -44 42 -77 54 -64 2 2 -3 30 -11 62 -15 54 -15 60 0 87 40 67 2 130 -78
130 l-46 0 3 -137z m87 79 c16 -30 2 -62 -25 -62 -21 0 -24 5 -24 40 0 33 3
40 20 40 10 0 24 -8 29 -18z"/>
<path d="M1410 820 l0 -141 57 3 c46 2 59 7 61 21 3 14 -4 17 -37 17 l-41 0 0
45 c0 43 1 45 30 45 23 0 30 4 30 20 0 16 -7 20 -30 20 -28 0 -30 3 -30 35 0
34 1 35 40 35 33 0 40 3 40 20 0 18 -7 20 -60 20 l-60 0 0 -140z"/>
<path d="M1552 823 c3 -120 5 -138 20 -141 14 -3 17 7 20 60 3 60 4 63 31 66
l27 3 0 -65 c0 -59 2 -66 20 -66 19 0 20 7 20 140 0 133 -1 140 -20 140 -18 0
-20 -7 -20 -61 0 -60 0 -60 -27 -57 -27 3 -28 6 -31 61 -3 49 -6 57 -23 57
-19 0 -19 -6 -17 -137z"/>
<path d="M1736 938 c-12 -17 -16 -47 -16 -118 0 -83 3 -99 20 -118 20 -22 64
-29 86 -14 24 16 34 55 34 134 0 108 -12 132 -67 136 -33 2 -44 -1 -57 -20z
m82 -98 c4 -98 -2 -122 -31 -118 -20 3 -22 9 -25 87 -3 100 0 113 30 109 21
-3 23 -9 26 -78z"/>
<path d="M1890 840 c0 -107 2 -122 20 -140 24 -24 57 -26 88 -4 21 14 22 22
22 140 0 114 -2 125 -17 122 -16 -3 -19 -19 -23 -118 -5 -107 -6 -115 -25
-115 -19 0 -20 8 -23 118 -2 109 -4 117 -22 117 -19 0 -20 -7 -20 -120z"/>
<path d="M2084 952 c-20 -13 -33 -48 -27 -73 3 -13 25 -43 49 -65 46 -43 57
-80 27 -91 -10 -4 -23 2 -37 19 -23 27 -46 27 -46 -1 0 -25 42 -61 71 -61 43
0 69 26 69 70 0 33 -7 45 -45 81 -49 46 -61 89 -25 89 11 0 23 -7 26 -15 7
-18 44 -20 44 -2 0 29 -31 57 -63 57 -18 0 -37 -4 -43 -8z"/>
<path d="M2222 823 l3 -138 58 -3 c51 -3 57 -1 57 17 0 16 -8 20 -37 23 -37 3
-38 4 -41 46 -3 41 -2 42 27 42 24 0 31 4 31 20 0 16 -7 20 -30 20 -28 0 -30
3 -30 35 0 34 1 35 40 35 33 0 40 3 40 20 0 18 -7 20 -60 20 l-61 0 3 -137z"/>
</g>
</svg>
